<svg xmlns="http://www.w3.org/2000/svg" xmlns:xlink="http://www.w3.org/1999/xlink" xmlns:s="https://github.com/nturley/netlistsvg" width="433" height="166.5"><style>svg {
  stroke:#000;
  fill:none;
}
text {
  fill:#000;
  stroke:none;
  font-size:10px;
  font-weight: bold;
  font-family: "Courier New", monospace;
}
line {
    stroke-linecap: round;
}
.nodelabel {
  text-anchor: middle;
}
.inputPortLabel {
  text-anchor: end;
}
.splitjoinBody {
  fill:#000;
}</style><g s:type="and" transform="translate(169,43)" s:width="30" s:height="25" id="cell_$abc$113$auto$blifparse.cc:381:parse_blif$114"><s:alias val="$and"/><s:alias val="$logic_and"/><s:alias val="$_AND_"/><s:alias val="$reduce_and"/><path d="M0,0 L0,25 L15,25 A15 12.5 0 0 0 15,0 Z" class="cell_$abc$113$auto$blifparse.cc:381:parse_blif$114"/><g s:x="0" s:y="5" s:pid="A"/><g s:x="0" s:y="20" s:pid="B"/><g s:x="30" s:y="12.5" s:pid="Y"/></g><g s:type="reduce_xor" transform="translate(168,125)" s:width="33" s:height="25" id="cell_$abc$113$auto$blifparse.cc:381:parse_blif$115"><s:alias val="$xor"/><s:alias val="$reduce_xor"/><s:alias val="$_XOR_"/><path d="M3,0 A30 25 0 0 1 3,25 A30 25 0 0 0 33,12.5 A30 25 0 0 0 3,0" class="cell_$abc$113$auto$blifparse.cc:381:parse_blif$115"/><path d="M0,0 A30 25 0 0 1 0,25" class="cell_$abc$113$auto$blifparse.cc:381:parse_blif$115"/><g s:x="2" s:y="5" s:pid="A"/><g s:x="2" s:y="20" s:pid="B"/><g s:x="33" s:y="12.5" s:pid="Y"/></g><g s:type="reduce_xor" transform="translate(236,117.5)" s:width="33" s:height="25" id="cell_$abc$113$auto$blifparse.cc:381:parse_blif$116"><s:alias val="$xor"/><s:alias val="$reduce_xor"/><s:alias val="$_XOR_"/><path d="M3,0 A30 25 0 0 1 3,25 A30 25 0 0 0 33,12.5 A30 25 0 0 0 3,0" class="cell_$abc$113$auto$blifparse.cc:381:parse_blif$116"/><path d="M0,0 A30 25 0 0 1 0,25" class="cell_$abc$113$auto$blifparse.cc:381:parse_blif$116"/><g s:x="2" s:y="5" s:pid="A"/><g s:x="2" s:y="20" s:pid="B"/><g s:x="33" s:y="12.5" s:pid="Y"/></g><g s:type="reduce_xor" transform="translate(236,12)" s:width="33" s:height="25" id="cell_$abc$113$auto$blifparse.cc:381:parse_blif$117"><s:alias val="$xor"/><s:alias val="$reduce_xor"/><s:alias val="$_XOR_"/><path d="M3,0 A30 25 0 0 1 3,25 A30 25 0 0 0 33,12.5 A30 25 0 0 0 3,0" class="cell_$abc$113$auto$blifparse.cc:381:parse_blif$117"/><path d="M0,0 A30 25 0 0 1 0,25" class="cell_$abc$113$auto$blifparse.cc:381:parse_blif$117"/><g s:x="2" s:y="5" s:pid="A"/><g s:x="2" s:y="20" s:pid="B"/><g s:x="33" s:y="12.5" s:pid="Y"/></g><g s:type="inputExt" transform="translate(12,125)" s:width="30" s:height="20" id="cell_a"><text x="15" y="-4" class="nodelabel cell_a" s:attribute="ref">a</text><s:alias val="$_inputExt_"/><path d="M0,0 L0,20 L15,20 L30,10 L15,0 Z" class="cell_a"/><g s:x="30" s:y="10" s:pid="Y"/></g><g s:type="inputExt" transform="translate(12,48)" s:width="30" s:height="20" id="cell_b"><text x="15" y="-4" class="nodelabel cell_b" s:attribute="ref">b</text><s:alias val="$_inputExt_"/><path d="M0,0 L0,20 L15,20 L30,10 L15,0 Z" class="cell_b"/><g s:x="30" s:y="10" s:pid="Y"/></g><g s:type="outputExt" transform="translate(391,110)" s:width="30" s:height="20" id="cell_c"><text x="15" y="-4" class="nodelabel cell_c" s:attribute="ref">c</text><s:alias val="$_outputExt_"/><path d="M30,0 L30,20 L15,20 L0,10 L15,0 Z" class="cell_c"/><g s:x="0" s:y="10" s:pid="A"/></g><g s:type="join" transform="translate(311,99.5)" s:width="4" s:height="40" id="cell_$join$,6,7,"><rect width="5" height="40" class="splitjoinBody" s:generic="body"/><s:alias val="$_join_"/><g s:x="5" s:y="20" s:pid="out"/><g transform="translate(0,10)" s:x="0" s:y="10" s:pid="in0"><text x="-3" y="-4" class="inputPortLabel">0</text></g><g transform="translate(0,30)" s:x="0" s:y="10" s:pid="in0"><text x="-3" y="-4" class="inputPortLabel">1</text></g></g><g s:type="split" transform="translate(116,37.5)" s:width="5" s:height="40" id="cell_$split$,4,5,"><rect width="5" height="40" class="splitjoinBody" s:generic="body"/><s:alias val="$_split_"/><g s:x="0" s:y="20" s:pid="in"/><g transform="translate(4,10)" s:x="4" s:y="10" s:pid="out0"><text x="5" y="-4">0</text></g><g transform="translate(4,30)" s:x="4" s:y="10" s:pid="out0"><text x="5" y="-4">1</text></g></g><g s:type="split" transform="translate(116,114.5)" s:width="5" s:height="40" id="cell_$split$,2,3,"><rect width="5" height="40" class="splitjoinBody" s:generic="body"/><s:alias val="$_split_"/><g s:x="0" s:y="20" s:pid="in"/><g transform="translate(4,10)" s:x="4" s:y="10" s:pid="out0"><text x="5" y="-4">0</text></g><g transform="translate(4,30)" s:x="4" s:y="10" s:pid="out0"><text x="5" y="-4">1</text></g></g><line x1="121" x2="169" y1="48" y2="48" class="net_4 width_1" style="stroke-width: 1"/><line x1="121" x2="138" y1="48" y2="48" class="net_4 width_1" style="stroke-width: 1"/><line x1="138" x2="138" y1="48" y2="21" class="net_4 width_1" style="stroke-width: 1"/><line x1="138" x2="211" y1="21" y2="21" class="net_4 width_1" style="stroke-width: 1"/><line x1="211" x2="211" y1="21" y2="17" class="net_4 width_1" style="stroke-width: 1"/><circle cx="138" cy="48" r="2" style="fill:#000" class="net_4 width_1"/><line x1="211" x2="238" y1="17" y2="17" class="net_4 width_1" style="stroke-width: 1"/><line x1="121" x2="148" y1="125" y2="125" class="net_2 width_1" style="stroke-width: 1"/><line x1="148" x2="148" y1="125" y2="63" class="net_2 width_1" style="stroke-width: 1"/><circle cx="148" cy="63" r="2" style="fill:#000" class="net_2 width_1"/><line x1="148" x2="169" y1="63" y2="63" class="net_2 width_1" style="stroke-width: 1"/><line x1="121" x2="148" y1="125" y2="125" class="net_2 width_1" style="stroke-width: 1"/><line x1="148" x2="148" y1="125" y2="32" class="net_2 width_1" style="stroke-width: 1"/><line x1="148" x2="238" y1="32" y2="32" class="net_2 width_1" style="stroke-width: 1"/><line x1="121" x2="158" y1="68" y2="68" class="net_5 width_1" style="stroke-width: 1"/><line x1="158" x2="158" y1="68" y2="130" class="net_5 width_1" style="stroke-width: 1"/><line x1="158" x2="170" y1="130" y2="130" class="net_5 width_1" style="stroke-width: 1"/><line x1="121" x2="170" y1="145" y2="145" class="net_3 width_1" style="stroke-width: 1"/><line x1="199" x2="211" y1="55.5" y2="55.5" class="net_8 width_1" style="stroke-width: 1"/><line x1="211" x2="211" y1="55.5" y2="122.5" class="net_8 width_1" style="stroke-width: 1"/><line x1="211" x2="238" y1="122.5" y2="122.5" class="net_8 width_1" style="stroke-width: 1"/><line x1="201" x2="238" y1="137.5" y2="137.5" class="net_9 width_1" style="stroke-width: 1"/><line x1="317" x2="391" y1="120" y2="120" class="net_6,7 width_2" style="stroke-width: 2"/><line x1="269" x2="279" y1="24.5" y2="24.5" class="net_6 width_1" style="stroke-width: 1"/><line x1="279" x2="279" y1="24.5" y2="110" class="net_6 width_1" style="stroke-width: 1"/><line x1="279" x2="311" y1="110" y2="110" class="net_6 width_1" style="stroke-width: 1"/><line x1="269" x2="311" y1="130" y2="130" class="net_7 width_1" style="stroke-width: 1"/><line x1="42" x2="116" y1="58" y2="58" class="net_4,5 width_2" style="stroke-width: 2"/><line x1="42" x2="116" y1="135" y2="135" class="net_2,3 width_2" style="stroke-width: 2"/><rect x="353" y="115" width="16" height="9" class="net_6,7 width_2 busLabel_2" style="fill: white; stroke: none"/><text x="352" y="123" class="net_6,7 width_2 busLabel_2">/2/</text><rect x="78" y="53" width="16" height="9" class="net_4,5 width_2 busLabel_2" style="fill: white; stroke: none"/><text x="77" y="61" class="net_4,5 width_2 busLabel_2">/2/</text><rect x="78" y="130" width="16" height="9" class="net_2,3 width_2 busLabel_2" style="fill: white; stroke: none"/><text x="77" y="138" class="net_2,3 width_2 busLabel_2">/2/</text></svg>