<svg xmlns="http://www.w3.org/2000/svg" xmlns:xlink="http://www.w3.org/1999/xlink" xmlns:s="https://github.com/nturley/netlistsvg" width="203" height="119"><style>svg {
  stroke:#000;
  fill:none;
}
text {
  fill:#000;
  stroke:none;
  font-size:10px;
  font-weight: bold;
  font-family: "Courier New", monospace;
}
line {
    stroke-linecap: round;
}
.nodelabel {
  text-anchor: middle;
}
.inputPortLabel {
  text-anchor: end;
}
.splitjoinBody {
  fill:#000;
}</style><g s:type="not" transform="translate(151,22)" s:width="30" s:height="20" id="cell_$abc$85$auto$blifparse.cc:381:parse_blif$86"><s:alias val="$_NOT_"/><s:alias val="$not"/><s:alias val="$logic_not"/><path d="M0,0 L0,20 L20,10 Z" class="cell_$abc$85$auto$blifparse.cc:381:parse_blif$86"/><circle cx="24" cy="10" r="3" class="cell_$abc$85$auto$blifparse.cc:381:parse_blif$86"/><g s:x="-1" s:y="10" s:pid="A"/><g s:x="27" s:y="10" s:pid="Y"/></g><g s:type="dff" transform="translate(84,22)" s:width="30" s:height="40" id="cell_$auto$ff.cc:262:slice$82"><s:alias val="$dff"/><s:alias val="$_DFF_"/><s:alias val="$_DFF_P_"/><s:alias val="$adff"/><s:alias val="$_DFF_"/><s:alias val="$_DFF_P_"/><s:alias val="$sdff"/><s:alias val="$_DFF_"/><s:alias val="$_DFF_P_"/><rect width="30" height="40" x="0" y="0" class="cell_$auto$ff.cc:262:slice$82"/><path d="M0,35 L5,30 L0,25" class="cell_$auto$ff.cc:262:slice$82"/><g s:x="31" s:y="10" s:pid="Q"/><g s:x="-1" s:y="30" s:pid="CLK"/><g s:x="-1" s:y="30" s:pid="C"/><g s:x="-1" s:y="10" s:pid="D"/><g s:x="15" s:y="40" s:pid="ARST"/><g s:x="15" s:y="40" s:pid="SRST"/></g><g s:type="inputExt" transform="translate(12,42)" s:width="30" s:height="20" id="cell_button"><text x="15" y="-4" class="nodelabel cell_button" s:attribute="ref">button</text><s:alias val="$_inputExt_"/><path d="M0,0 L0,20 L15,20 L30,10 L15,0 Z" class="cell_button"/><g s:x="30" s:y="10" s:pid="Y"/></g><g s:type="outputExt" transform="translate(151,87)" s:width="30" s:height="20" id="cell_light"><text x="15" y="-4" class="nodelabel cell_light" s:attribute="ref">light</text><s:alias val="$_outputExt_"/><path d="M30,0 L30,20 L15,20 L0,10 L15,0 Z" class="cell_light"/><g s:x="0" s:y="10" s:pid="A"/></g><line x1="115" x2="150" y1="32" y2="32" class="net_3 width_1" style="stroke-width: 1"/><line x1="115" x2="125" y1="32" y2="32" class="net_3 width_1" style="stroke-width: 1"/><line x1="125" x2="125" y1="32" y2="97" class="net_3 width_1" style="stroke-width: 1"/><circle cx="125" cy="32" r="2" style="fill:#000" class="net_3 width_1"/><line x1="125" x2="151" y1="97" y2="97" class="net_3 width_1" style="stroke-width: 1"/><line x1="42" x2="83" y1="52" y2="52" class="net_2 width_1" style="stroke-width: 1"/><line x1="178" x2="191" y1="32" y2="32" class="net_4 width_1" style="stroke-width: 1"/><line x1="191" x2="191" y1="32" y2="12" class="net_4 width_1" style="stroke-width: 1"/><line x1="191" x2="58" y1="12" y2="12" class="net_4 width_1" style="stroke-width: 1"/><line x1="58" x2="58" y1="12" y2="32" class="net_4 width_1" style="stroke-width: 1"/><line x1="58" x2="83" y1="32" y2="32" class="net_4 width_1" style="stroke-width: 1"/></svg>