<svg xmlns="http://www.w3.org/2000/svg" xmlns:xlink="http://www.w3.org/1999/xlink" xmlns:s="https://github.com/nturley/netlistsvg" width="598" height="184"><style>svg {
  stroke:#000;
  fill:none;
}
text {
  fill:#000;
  stroke:none;
  font-size:10px;
  font-weight: bold;
  font-family: "Courier New", monospace;
}
line {
    stroke-linecap: round;
}
.nodelabel {
  text-anchor: middle;
}
.inputPortLabel {
  text-anchor: end;
}
.splitjoinBody {
  fill:#000;
}</style><g s:type="generic" transform="translate(380,66.5)" s:width="30" s:height="40" id="cell_counter_component"><text x="15" y="-4" class="nodelabel cell_counter_component" s:attribute="ref">counter</text><rect width="30" height="60" s:generic="body" class="cell_counter_component"/><g transform="translate(0,10)" s:x="0" s:y="10" s:pid="in0" id="port_counter_component~button_debounced"><text x="-3" y="-4" class="inputPortLabel cell_counter_component">button_debounced</text></g><g transform="translate(0,30)" s:x="0" s:y="10" s:pid="in0" id="port_counter_component~clock"><text x="-3" y="-4" class="inputPortLabel cell_counter_component">clock</text></g><g transform="translate(0,50)" s:x="0" s:y="10" s:pid="in0" id="port_counter_component~reset"><text x="-3" y="-4" class="inputPortLabel cell_counter_component">reset</text></g><g transform="translate(30,10)" s:x="30" s:y="10" s:pid="out0" id="port_counter_component~ones"><text x="5" y="-4" style="fill:#000; stroke:none" class="cell_counter_component">ones</text></g><g transform="translate(30,30)" s:x="30" s:y="10" s:pid="out0" id="port_counter_component~tens"><text x="5" y="-4" style="fill:#000; stroke:none" class="cell_counter_component">tens</text></g></g><g s:type="generic" transform="translate(120,24)" s:width="30" s:height="40" id="cell_debouncer_component"><text x="15" y="-4" class="nodelabel cell_debouncer_component" s:attribute="ref">debouncer</text><rect width="30" height="60" s:generic="body" class="cell_debouncer_component"/><g transform="translate(0,10)" s:x="0" s:y="10" s:pid="in0" id="port_debouncer_component~button"><text x="-3" y="-4" class="inputPortLabel cell_debouncer_component">button</text></g><g transform="translate(0,30)" s:x="0" s:y="10" s:pid="in0" id="port_debouncer_component~clock"><text x="-3" y="-4" class="inputPortLabel cell_debouncer_component">clock</text></g><g transform="translate(0,50)" s:x="0" s:y="10" s:pid="in0" id="port_debouncer_component~reset"><text x="-3" y="-4" class="inputPortLabel cell_debouncer_component">reset</text></g><g transform="translate(30,10)" s:x="30" s:y="10" s:pid="out0" id="port_debouncer_component~button_debounced"><text x="5" y="-4" style="fill:#000; stroke:none" class="cell_debouncer_component">button_debounced</text></g></g><g s:type="inputExt" transform="translate(12,87)" s:width="30" s:height="20" id="cell_clock"><text x="15" y="-4" class="nodelabel cell_clock" s:attribute="ref">clock</text><s:alias val="$_inputExt_"/><path d="M0,0 L0,20 L15,20 L30,10 L15,0 Z" class="cell_clock"/><g s:x="30" s:y="10" s:pid="Y"/></g><g s:type="inputExt" transform="translate(12,152)" s:width="30" s:height="20" id="cell_reset"><text x="15" y="-4" class="nodelabel cell_reset" s:attribute="ref">reset</text><s:alias val="$_inputExt_"/><path d="M0,0 L0,20 L15,20 L30,10 L15,0 Z" class="cell_reset"/><g s:x="30" s:y="10" s:pid="Y"/></g><g s:type="inputExt" transform="translate(12,22)" s:width="30" s:height="20" id="cell_button"><text x="15" y="-4" class="nodelabel cell_button" s:attribute="ref">button</text><s:alias val="$_inputExt_"/><path d="M0,0 L0,20 L15,20 L30,10 L15,0 Z" class="cell_button"/><g s:x="30" s:y="10" s:pid="Y"/></g><g s:type="outputExt" transform="translate(556,22)" s:width="30" s:height="20" id="cell_ones"><text x="15" y="-4" class="nodelabel cell_ones" s:attribute="ref">ones</text><s:alias val="$_outputExt_"/><path d="M30,0 L30,20 L15,20 L0,10 L15,0 Z" class="cell_ones"/><g s:x="0" s:y="10" s:pid="A"/></g><g s:type="outputExt" transform="translate(556,87)" s:width="30" s:height="20" id="cell_tens"><text x="15" y="-4" class="nodelabel cell_tens" s:attribute="ref">tens</text><s:alias val="$_outputExt_"/><path d="M30,0 L30,20 L15,20 L0,10 L15,0 Z" class="cell_tens"/><g s:x="0" s:y="10" s:pid="A"/></g><line x1="151" x2="258" y1="34.5" y2="34.5" class="net_13 width_1" style="stroke-width: 1"/><line x1="258" x2="258" y1="34.5" y2="77" class="net_13 width_1" style="stroke-width: 1"/><line x1="258" x2="380" y1="77" y2="77" class="net_13 width_1" style="stroke-width: 1"/><line x1="42" x2="380" y1="97" y2="97" class="net_2 width_1" style="stroke-width: 1"/><line x1="42" x2="58" y1="97" y2="97" class="net_2 width_1" style="stroke-width: 1"/><line x1="58" x2="58" y1="97" y2="54.5" class="net_2 width_1" style="stroke-width: 1"/><circle cx="58" cy="97" r="2" style="fill:#000" class="net_2 width_1"/><line x1="58" x2="120" y1="54.5" y2="54.5" class="net_2 width_1" style="stroke-width: 1"/><line x1="42" x2="258" y1="162" y2="162" class="net_3 width_1" style="stroke-width: 1"/><line x1="258" x2="258" y1="162" y2="117" class="net_3 width_1" style="stroke-width: 1"/><line x1="258" x2="380" y1="117" y2="117" class="net_3 width_1" style="stroke-width: 1"/><line x1="42" x2="68" y1="162" y2="162" class="net_3 width_1" style="stroke-width: 1"/><line x1="68" x2="68" y1="162" y2="74.5" class="net_3 width_1" style="stroke-width: 1"/><circle cx="68" cy="162" r="2" style="fill:#000" class="net_3 width_1"/><line x1="68" x2="120" y1="74.5" y2="74.5" class="net_3 width_1" style="stroke-width: 1"/><line x1="42" x2="58" y1="32" y2="32" class="net_4 width_1" style="stroke-width: 1"/><line x1="58" x2="58" y1="32" y2="34.5" class="net_4 width_1" style="stroke-width: 1"/><line x1="58" x2="120" y1="34.5" y2="34.5" class="net_4 width_1" style="stroke-width: 1"/><line x1="411" x2="492" y1="77" y2="77" class="net_5,6,7,8 width_4" style="stroke-width: 2"/><line x1="492" x2="492" y1="77" y2="32" class="net_5,6,7,8 width_4" style="stroke-width: 2"/><line x1="492" x2="556" y1="32" y2="32" class="net_5,6,7,8 width_4" style="stroke-width: 2"/><line x1="411" x2="556" y1="97" y2="97" class="net_9,10,11,12 width_4" style="stroke-width: 2"/><rect x="518" y="27" width="16" height="9" class="net_5,6,7,8 width_4 busLabel_4" style="fill: white; stroke: none"/><text x="517" y="35" class="net_5,6,7,8 width_4 busLabel_4">/4/</text><rect x="518" y="92" width="16" height="9" class="net_9,10,11,12 width_4 busLabel_4" style="fill: white; stroke: none"/><text x="517" y="100" class="net_9,10,11,12 width_4 busLabel_4">/4/</text></svg>