<svg xmlns="http://www.w3.org/2000/svg" xmlns:xlink="http://www.w3.org/1999/xlink" xmlns:s="https://github.com/nturley/netlistsvg" width="647" height="215"><style>svg {
  stroke:#000;
  fill:none;
}
text {
  fill:#000;
  stroke:none;
  font-size:10px;
  font-weight: bold;
  font-family: "Courier New", monospace;
}
line {
    stroke-linecap: round;
}
.nodelabel {
  text-anchor: middle;
}
.inputPortLabel {
  text-anchor: end;
}
.splitjoinBody {
  fill:#000;
}</style><g s:type="not" transform="translate(191,44)" s:width="30" s:height="20" id="cell_$abc$205$auto$blifparse.cc:381:parse_blif$206"><s:alias val="$_NOT_"/><s:alias val="$not"/><s:alias val="$logic_not"/><path d="M0,0 L0,20 L20,10 Z" class="cell_$abc$205$auto$blifparse.cc:381:parse_blif$206"/><circle cx="24" cy="10" r="3" class="cell_$abc$205$auto$blifparse.cc:381:parse_blif$206"/><g s:x="-1" s:y="10" s:pid="A"/><g s:x="27" s:y="10" s:pid="Y"/></g><g s:type="reduce_nor" transform="translate(321,88)" s:width="33" s:height="25" id="cell_$abc$205$auto$blifparse.cc:381:parse_blif$207"><s:alias val="$nor"/><s:alias val="$reduce_nor"/><s:alias val="$_NOR_"/><s:alias val="$_ORNOT_"/><path d="M0,0 A30 25 0 0 1 0,25 A30 25 0 0 0 30,12.5 A30 25 0 0 0 0,0" class="cell_$abc$205$auto$blifparse.cc:381:parse_blif$207"/><circle cx="33" cy="12.5" r="3" class="cell_$abc$205$auto$blifparse.cc:381:parse_blif$207"/><g s:x="2" s:y="5" s:pid="A"/><g s:x="2" s:y="20" s:pid="B"/><g s:x="36" s:y="12.5" s:pid="Y"/></g><g s:type="reduce_nor" transform="translate(463,178)" s:width="33" s:height="25" id="cell_$abc$205$auto$blifparse.cc:381:parse_blif$208"><s:alias val="$nor"/><s:alias val="$reduce_nor"/><s:alias val="$_NOR_"/><s:alias val="$_ORNOT_"/><path d="M0,0 A30 25 0 0 1 0,25 A30 25 0 0 0 30,12.5 A30 25 0 0 0 0,0" class="cell_$abc$205$auto$blifparse.cc:381:parse_blif$208"/><circle cx="33" cy="12.5" r="3" class="cell_$abc$205$auto$blifparse.cc:381:parse_blif$208"/><g s:x="2" s:y="5" s:pid="A"/><g s:x="2" s:y="20" s:pid="B"/><g s:x="36" s:y="12.5" s:pid="Y"/></g><g s:type="or" transform="translate(323,148)" s:width="30" s:height="25" id="cell_$abc$205$auto$blifparse.cc:381:parse_blif$209"><s:alias val="$or"/><s:alias val="$logic_or"/><s:alias val="$_OR_"/><s:alias val="$reduce_or"/><s:alias val="$reduce_bool"/><path d="M0,0 A30 25 0 0 1 0,25 A30 25 0 0 0 30,12.5 A30 25 0 0 0 0,0" class="cell_$abc$205$auto$blifparse.cc:381:parse_blif$209"/><g s:x="2" s:y="5" s:pid="A"/><g s:x="2" s:y="20" s:pid="B"/><g s:x="30" s:y="12.5" s:pid="Y"/></g><g s:type="nand" transform="translate(534,125.5)" s:width="30" s:height="25" id="cell_$abc$205$auto$blifparse.cc:381:parse_blif$210"><s:alias val="$nand"/><s:alias val="$logic_nand"/><s:alias val="$_NAND_"/><s:alias val="$_ANDNOT_"/><path d="M0,0 L0,25 L15,25 A15 12.5 0 0 0 15,0 Z" class="cell_$abc$205$auto$blifparse.cc:381:parse_blif$210"/><circle cx="34" cy="12.5" r="3" class="cell_$abc$205$auto$blifparse.cc:381:parse_blif$210"/><g s:x="0" s:y="5" s:pid="A"/><g s:x="0" s:y="20" s:pid="B"/><g s:x="36" s:y="12.5" s:pid="Y"/></g><g s:type="and" transform="translate(256,49)" s:width="30" s:height="25" id="cell_$abc$205$auto$blifparse.cc:381:parse_blif$211"><s:alias val="$and"/><s:alias val="$logic_and"/><s:alias val="$_AND_"/><s:alias val="$reduce_and"/><path d="M0,0 L0,25 L15,25 A15 12.5 0 0 0 15,0 Z" class="cell_$abc$205$auto$blifparse.cc:381:parse_blif$211"/><g s:x="0" s:y="5" s:pid="A"/><g s:x="0" s:y="20" s:pid="B"/><g s:x="30" s:y="12.5" s:pid="Y"/></g><g s:type="reduce_nor" transform="translate(321,28)" s:width="33" s:height="25" id="cell_$abc$205$auto$blifparse.cc:381:parse_blif$212"><s:alias val="$nor"/><s:alias val="$reduce_nor"/><s:alias val="$_NOR_"/><s:alias val="$_ORNOT_"/><path d="M0,0 A30 25 0 0 1 0,25 A30 25 0 0 0 30,12.5 A30 25 0 0 0 0,0" class="cell_$abc$205$auto$blifparse.cc:381:parse_blif$212"/><circle cx="33" cy="12.5" r="3" class="cell_$abc$205$auto$blifparse.cc:381:parse_blif$212"/><g s:x="2" s:y="5" s:pid="A"/><g s:x="2" s:y="20" s:pid="B"/><g s:x="36" s:y="12.5" s:pid="Y"/></g><g s:type="reduce_nor" transform="translate(392,12)" s:width="33" s:height="25" id="cell_$abc$205$auto$blifparse.cc:381:parse_blif$213"><s:alias val="$nor"/><s:alias val="$reduce_nor"/><s:alias val="$_NOR_"/><s:alias val="$_ORNOT_"/><path d="M0,0 A30 25 0 0 1 0,25 A30 25 0 0 0 30,12.5 A30 25 0 0 0 0,0" class="cell_$abc$205$auto$blifparse.cc:381:parse_blif$213"/><circle cx="33" cy="12.5" r="3" class="cell_$abc$205$auto$blifparse.cc:381:parse_blif$213"/><g s:x="2" s:y="5" s:pid="A"/><g s:x="2" s:y="20" s:pid="B"/><g s:x="36" s:y="12.5" s:pid="Y"/></g><g s:type="and" transform="translate(394,95.5)" s:width="30" s:height="25" id="cell_$abc$205$auto$blifparse.cc:381:parse_blif$214"><s:alias val="$and"/><s:alias val="$logic_and"/><s:alias val="$_AND_"/><s:alias val="$reduce_and"/><path d="M0,0 L0,25 L15,25 A15 12.5 0 0 0 15,0 Z" class="cell_$abc$205$auto$blifparse.cc:381:parse_blif$214"/><g s:x="0" s:y="5" s:pid="A"/><g s:x="0" s:y="20" s:pid="B"/><g s:x="30" s:y="12.5" s:pid="Y"/></g><g s:type="inputExt" transform="translate(12,73)" s:width="30" s:height="20" id="cell_request"><text x="15" y="-4" class="nodelabel cell_request" s:attribute="ref">request</text><s:alias val="$_inputExt_"/><path d="M0,0 L0,20 L15,20 L30,10 L15,0 Z" class="cell_request"/><g s:x="30" s:y="10" s:pid="Y"/></g><g s:type="outputExt" transform="translate(605,128)" s:width="30" s:height="20" id="cell_valid"><text x="15" y="-4" class="nodelabel cell_valid" s:attribute="ref">valid</text><s:alias val="$_outputExt_"/><path d="M30,0 L30,20 L15,20 L0,10 L15,0 Z" class="cell_valid"/><g s:x="0" s:y="10" s:pid="A"/></g><g s:type="outputExt" transform="translate(605,24.5)" s:width="30" s:height="20" id="cell_user"><text x="15" y="-4" class="nodelabel cell_user" s:attribute="ref">user</text><s:alias val="$_outputExt_"/><path d="M30,0 L30,20 L15,20 L0,10 L15,0 Z" class="cell_user"/><g s:x="0" s:y="10" s:pid="A"/></g><g s:type="join" transform="translate(476,14)" s:width="4" s:height="40" id="cell_$join$,7,8,"><rect width="5" height="40" class="splitjoinBody" s:generic="body"/><s:alias val="$_join_"/><g s:x="5" s:y="20" s:pid="out"/><g transform="translate(0,10)" s:x="0" s:y="10" s:pid="in0"><text x="-3" y="-4" class="inputPortLabel">0</text></g><g transform="translate(0,30)" s:x="0" s:y="10" s:pid="in0"><text x="-3" y="-4" class="inputPortLabel">1</text></g></g><g s:type="split" transform="translate(128,62.5)" s:width="5" s:height="40" id="cell_$split$,2,3,4,5,"><rect width="5" height="80" class="splitjoinBody" s:generic="body"/><s:alias val="$_split_"/><g s:x="0" s:y="20" s:pid="in"/><g transform="translate(4,10)" s:x="4" s:y="10" s:pid="out0"><text x="5" y="-4">2</text></g><g transform="translate(4,30)" s:x="4" s:y="10" s:pid="out0"><text x="5" y="-4">0</text></g><g transform="translate(4,50)" s:x="4" s:y="10" s:pid="out0"><text x="5" y="-4">1</text></g><g transform="translate(4,70)" s:x="4" s:y="10" s:pid="out0"><text x="5" y="-4">3</text></g></g><line x1="133" x2="150" y1="73" y2="73" class="net_4 width_1" style="stroke-width: 1"/><line x1="150" x2="150" y1="73" y2="54" class="net_4 width_1" style="stroke-width: 1"/><circle cx="150" cy="73" r="2" style="fill:#000" class="net_4 width_1"/><line x1="150" x2="190" y1="54" y2="54" class="net_4 width_1" style="stroke-width: 1"/><line x1="133" x2="150" y1="73" y2="73" class="net_4 width_1" style="stroke-width: 1"/><line x1="150" x2="150" y1="73" y2="183" class="net_4 width_1" style="stroke-width: 1"/><line x1="150" x2="465" y1="183" y2="183" class="net_4 width_1" style="stroke-width: 1"/><line x1="133" x2="150" y1="73" y2="73" class="net_4 width_1" style="stroke-width: 1"/><line x1="150" x2="150" y1="73" y2="153" class="net_4 width_1" style="stroke-width: 1"/><circle cx="150" cy="153" r="2" style="fill:#000" class="net_4 width_1"/><line x1="150" x2="325" y1="153" y2="153" class="net_4 width_1" style="stroke-width: 1"/><line x1="133" x2="323" y1="93" y2="93" class="net_2 width_1" style="stroke-width: 1"/><line x1="133" x2="160" y1="93" y2="93" class="net_2 width_1" style="stroke-width: 1"/><line x1="160" x2="160" y1="93" y2="17" class="net_2 width_1" style="stroke-width: 1"/><circle cx="160" cy="93" r="2" style="fill:#000" class="net_2 width_1"/><line x1="160" x2="394" y1="17" y2="17" class="net_2 width_1" style="stroke-width: 1"/><line x1="133" x2="170" y1="113" y2="113" class="net_3 width_1" style="stroke-width: 1"/><line x1="170" x2="170" y1="113" y2="108" class="net_3 width_1" style="stroke-width: 1"/><circle cx="170" cy="108" r="2" style="fill:#000" class="net_3 width_1"/><line x1="170" x2="323" y1="108" y2="108" class="net_3 width_1" style="stroke-width: 1"/><line x1="133" x2="170" y1="113" y2="113" class="net_3 width_1" style="stroke-width: 1"/><line x1="170" x2="170" y1="113" y2="33" class="net_3 width_1" style="stroke-width: 1"/><line x1="170" x2="323" y1="33" y2="33" class="net_3 width_1" style="stroke-width: 1"/><line x1="133" x2="180" y1="133" y2="133" class="net_5 width_1" style="stroke-width: 1"/><line x1="180" x2="180" y1="133" y2="198" class="net_5 width_1" style="stroke-width: 1"/><circle cx="180" cy="133" r="2" style="fill:#000" class="net_5 width_1"/><line x1="180" x2="465" y1="198" y2="198" class="net_5 width_1" style="stroke-width: 1"/><line x1="133" x2="180" y1="133" y2="133" class="net_5 width_1" style="stroke-width: 1"/><line x1="180" x2="180" y1="133" y2="168" class="net_5 width_1" style="stroke-width: 1"/><circle cx="180" cy="168" r="2" style="fill:#000" class="net_5 width_1"/><line x1="180" x2="325" y1="168" y2="168" class="net_5 width_1" style="stroke-width: 1"/><line x1="133" x2="180" y1="133" y2="133" class="net_5 width_1" style="stroke-width: 1"/><line x1="180" x2="180" y1="133" y2="74" class="net_5 width_1" style="stroke-width: 1"/><line x1="180" x2="231" y1="74" y2="74" class="net_5 width_1" style="stroke-width: 1"/><line x1="231" x2="231" y1="74" y2="69" class="net_5 width_1" style="stroke-width: 1"/><line x1="231" x2="256" y1="69" y2="69" class="net_5 width_1" style="stroke-width: 1"/><line x1="357" x2="377" y1="100.5" y2="100.5" class="net_10 width_1" style="stroke-width: 1"/><line x1="377" x2="377" y1="100.5" y2="130.5" class="net_10 width_1" style="stroke-width: 1"/><circle cx="377" cy="100.5" r="2" style="fill:#000" class="net_10 width_1"/><line x1="377" x2="534" y1="130.5" y2="130.5" class="net_10 width_1" style="stroke-width: 1"/><line x1="357" x2="394" y1="100.5" y2="100.5" class="net_10 width_1" style="stroke-width: 1"/><line x1="499" x2="509" y1="190.5" y2="190.5" class="net_11 width_1" style="stroke-width: 1"/><line x1="509" x2="509" y1="190.5" y2="145.5" class="net_11 width_1" style="stroke-width: 1"/><line x1="509" x2="534" y1="145.5" y2="145.5" class="net_11 width_1" style="stroke-width: 1"/><line x1="218" x2="256" y1="54" y2="54" class="net_9 width_1" style="stroke-width: 1"/><line x1="286" x2="296" y1="61.5" y2="61.5" class="net_13 width_1" style="stroke-width: 1"/><line x1="296" x2="296" y1="61.5" y2="48" class="net_13 width_1" style="stroke-width: 1"/><line x1="296" x2="323" y1="48" y2="48" class="net_13 width_1" style="stroke-width: 1"/><line x1="357" x2="367" y1="40.5" y2="40.5" class="net_14 width_1" style="stroke-width: 1"/><line x1="367" x2="367" y1="40.5" y2="32" class="net_14 width_1" style="stroke-width: 1"/><line x1="367" x2="394" y1="32" y2="32" class="net_14 width_1" style="stroke-width: 1"/><line x1="353" x2="367" y1="160.5" y2="160.5" class="net_12 width_1" style="stroke-width: 1"/><line x1="367" x2="367" y1="160.5" y2="115.5" class="net_12 width_1" style="stroke-width: 1"/><line x1="367" x2="394" y1="115.5" y2="115.5" class="net_12 width_1" style="stroke-width: 1"/><line x1="570" x2="605" y1="138" y2="138" class="net_6 width_1" style="stroke-width: 1"/><line x1="482" x2="605" y1="34.5" y2="34.5" class="net_7,8 width_2" style="stroke-width: 2"/><line x1="428" x2="476" y1="24.5" y2="24.5" class="net_7 width_1" style="stroke-width: 1"/><line x1="424" x2="438" y1="108" y2="108" class="net_8 width_1" style="stroke-width: 1"/><line x1="438" x2="438" y1="108" y2="44.5" class="net_8 width_1" style="stroke-width: 1"/><line x1="438" x2="476" y1="44.5" y2="44.5" class="net_8 width_1" style="stroke-width: 1"/><line x1="42" x2="128" y1="83" y2="83" class="net_2,3,4,5 width_4" style="stroke-width: 2"/><rect x="551" y="29.5" width="16" height="9" class="net_7,8 width_2 busLabel_2" style="fill: white; stroke: none"/><text x="550" y="37.5" class="net_7,8 width_2 busLabel_2">/2/</text><rect x="90" y="78" width="16" height="9" class="net_2,3,4,5 width_4 busLabel_4" style="fill: white; stroke: none"/><text x="89" y="86" class="net_2,3,4,5 width_4 busLabel_4">/4/</text></svg>