<?xml version="1.0" encoding="UTF-8" standalone="no"?>
<!DOCTYPE svg PUBLIC "-//W3C//DTD SVG 1.1//EN"
 "http://www.w3.org/Graphics/SVG/1.1/DTD/svg11.dtd">
<!-- Generated by graphviz version 2.43.0 (0)
 -->
<!-- Title: priority_encoder Pages: 1 -->
<svg width="1407pt" height="530pt"
 viewBox="0.00 0.00 1407.34 530.00" xmlns="http://www.w3.org/2000/svg" xmlns:xlink="http://www.w3.org/1999/xlink">
<g id="graph0" class="graph" transform="scale(1 1) rotate(0) translate(4 526)">
<title>priority_encoder</title>
<polygon fill="white" stroke="transparent" points="-4,4 -4,-526 1403.34,-526 1403.34,4 -4,4"/>
<text text-anchor="middle" x="699.67" y="-7.8" font-family="Times,serif" font-size="14.00">priority_encoder</text>
<!-- n7 -->
<g id="node1" class="node">
<title>n7</title>
<polygon fill="none" stroke="black" points="99.84,-248.04 99.84,-262.96 70.62,-273.5 29.28,-273.5 0.05,-262.96 0.05,-248.04 29.28,-237.5 70.62,-237.5 99.84,-248.04"/>
<text text-anchor="middle" x="49.95" y="-251.8" font-family="Times,serif" font-size="14.00">request</text>
</g>
<!-- x0 -->
<g id="node7" class="node">
<title>x0</title>
<path fill="none" stroke="black" d="M147.9,-78.5C147.9,-78.5 198.9,-78.5 198.9,-78.5 204.9,-78.5 210.9,-84.5 210.9,-90.5 210.9,-90.5 210.9,-102.5 210.9,-102.5 210.9,-108.5 204.9,-114.5 198.9,-114.5 198.9,-114.5 147.9,-114.5 147.9,-114.5 141.9,-114.5 135.9,-108.5 135.9,-102.5 135.9,-102.5 135.9,-90.5 135.9,-90.5 135.9,-84.5 141.9,-78.5 147.9,-78.5"/>
<text text-anchor="middle" x="173.4" y="-92.8" font-family="Times,serif" font-size="14.00">2:2 &#45; 0:0</text>
</g>
<!-- n7&#45;&gt;x0 -->
<g id="edge24" class="edge">
<title>n7:e&#45;&gt;x0:w</title>
<path fill="none" stroke="black" d="M99.9,-255.5C168.53,-255.5 74.42,-112.83 125.89,-97.78"/>
<polygon fill="black" stroke="black" points="126.42,-101.24 135.9,-96.5 125.53,-94.3 126.42,-101.24"/>
</g>
<!-- x1 -->
<g id="node9" class="node">
<title>x1</title>
<path fill="none" stroke="black" d="M147.9,-485.5C147.9,-485.5 198.9,-485.5 198.9,-485.5 204.9,-485.5 210.9,-491.5 210.9,-497.5 210.9,-497.5 210.9,-509.5 210.9,-509.5 210.9,-515.5 204.9,-521.5 198.9,-521.5 198.9,-521.5 147.9,-521.5 147.9,-521.5 141.9,-521.5 135.9,-515.5 135.9,-509.5 135.9,-509.5 135.9,-497.5 135.9,-497.5 135.9,-491.5 141.9,-485.5 147.9,-485.5"/>
<text text-anchor="middle" x="173.4" y="-499.8" font-family="Times,serif" font-size="14.00">0:0 &#45; 0:0</text>
</g>
<!-- n7&#45;&gt;x1 -->
<g id="edge25" class="edge">
<title>n7:e&#45;&gt;x1:w</title>
<path fill="none" stroke="black" d="M99.9,-255.5C151.67,-255.5 90.16,-469.85 126,-499.99"/>
<polygon fill="black" stroke="black" points="125.3,-503.46 135.9,-503.5 127.64,-496.86 125.3,-503.46"/>
</g>
<!-- x2 -->
<g id="node10" class="node">
<title>x2</title>
<path fill="none" stroke="black" d="M147.9,-430.5C147.9,-430.5 198.9,-430.5 198.9,-430.5 204.9,-430.5 210.9,-436.5 210.9,-442.5 210.9,-442.5 210.9,-454.5 210.9,-454.5 210.9,-460.5 204.9,-466.5 198.9,-466.5 198.9,-466.5 147.9,-466.5 147.9,-466.5 141.9,-466.5 135.9,-460.5 135.9,-454.5 135.9,-454.5 135.9,-442.5 135.9,-442.5 135.9,-436.5 141.9,-430.5 147.9,-430.5"/>
<text text-anchor="middle" x="173.4" y="-444.8" font-family="Times,serif" font-size="14.00">1:1 &#45; 0:0</text>
</g>
<!-- n7&#45;&gt;x2 -->
<g id="edge26" class="edge">
<title>n7:e&#45;&gt;x2:w</title>
<path fill="none" stroke="black" d="M99.9,-255.5C183.4,-255.5 60.13,-432.27 125.86,-447.46"/>
<polygon fill="black" stroke="black" points="125.59,-450.95 135.9,-448.5 126.31,-443.99 125.59,-450.95"/>
</g>
<!-- x3 -->
<g id="node12" class="node">
<title>x3</title>
<path fill="none" stroke="black" d="M147.9,-375.5C147.9,-375.5 198.9,-375.5 198.9,-375.5 204.9,-375.5 210.9,-381.5 210.9,-387.5 210.9,-387.5 210.9,-399.5 210.9,-399.5 210.9,-405.5 204.9,-411.5 198.9,-411.5 198.9,-411.5 147.9,-411.5 147.9,-411.5 141.9,-411.5 135.9,-405.5 135.9,-399.5 135.9,-399.5 135.9,-387.5 135.9,-387.5 135.9,-381.5 141.9,-375.5 147.9,-375.5"/>
<text text-anchor="middle" x="173.4" y="-389.8" font-family="Times,serif" font-size="14.00">2:2 &#45; 0:0</text>
</g>
<!-- n7&#45;&gt;x3 -->
<g id="edge27" class="edge">
<title>n7:e&#45;&gt;x3:w</title>
<path fill="none" stroke="black" d="M99.9,-255.5C159.32,-255.5 83.25,-376.79 125.74,-391.95"/>
<polygon fill="black" stroke="black" points="125.48,-395.45 135.9,-393.5 126.54,-388.53 125.48,-395.45"/>
</g>
<!-- x4 -->
<g id="node13" class="node">
<title>x4</title>
<path fill="none" stroke="black" d="M147.9,-320.5C147.9,-320.5 198.9,-320.5 198.9,-320.5 204.9,-320.5 210.9,-326.5 210.9,-332.5 210.9,-332.5 210.9,-344.5 210.9,-344.5 210.9,-350.5 204.9,-356.5 198.9,-356.5 198.9,-356.5 147.9,-356.5 147.9,-356.5 141.9,-356.5 135.9,-350.5 135.9,-344.5 135.9,-344.5 135.9,-332.5 135.9,-332.5 135.9,-326.5 141.9,-320.5 147.9,-320.5"/>
<text text-anchor="middle" x="173.4" y="-334.8" font-family="Times,serif" font-size="14.00">3:3 &#45; 0:0</text>
</g>
<!-- n7&#45;&gt;x4 -->
<g id="edge28" class="edge">
<title>n7:e&#45;&gt;x4:w</title>
<path fill="none" stroke="black" d="M99.9,-255.5C136.02,-255.5 103.84,-322.5 126.09,-336.11"/>
<polygon fill="black" stroke="black" points="125.35,-339.53 135.9,-338.5 127.01,-332.73 125.35,-339.53"/>
</g>
<!-- x5 -->
<g id="node15" class="node">
<title>x5</title>
<path fill="none" stroke="black" d="M147.9,-265.5C147.9,-265.5 198.9,-265.5 198.9,-265.5 204.9,-265.5 210.9,-271.5 210.9,-277.5 210.9,-277.5 210.9,-289.5 210.9,-289.5 210.9,-295.5 204.9,-301.5 198.9,-301.5 198.9,-301.5 147.9,-301.5 147.9,-301.5 141.9,-301.5 135.9,-295.5 135.9,-289.5 135.9,-289.5 135.9,-277.5 135.9,-277.5 135.9,-271.5 141.9,-265.5 147.9,-265.5"/>
<text text-anchor="middle" x="173.4" y="-279.8" font-family="Times,serif" font-size="14.00">2:2 &#45; 0:0</text>
</g>
<!-- n7&#45;&gt;x5 -->
<g id="edge29" class="edge">
<title>n7:e&#45;&gt;x5:w</title>
<path fill="none" stroke="black" d="M99.9,-255.5C116.05,-255.5 116.45,-273.28 126.2,-280.5"/>
<polygon fill="black" stroke="black" points="125.31,-283.89 135.9,-283.5 127.38,-277.2 125.31,-283.89"/>
</g>
<!-- x6 -->
<g id="node16" class="node">
<title>x6</title>
<path fill="none" stroke="black" d="M147.9,-210.5C147.9,-210.5 198.9,-210.5 198.9,-210.5 204.9,-210.5 210.9,-216.5 210.9,-222.5 210.9,-222.5 210.9,-234.5 210.9,-234.5 210.9,-240.5 204.9,-246.5 198.9,-246.5 198.9,-246.5 147.9,-246.5 147.9,-246.5 141.9,-246.5 135.9,-240.5 135.9,-234.5 135.9,-234.5 135.9,-222.5 135.9,-222.5 135.9,-216.5 141.9,-210.5 147.9,-210.5"/>
<text text-anchor="middle" x="173.4" y="-224.8" font-family="Times,serif" font-size="14.00">3:3 &#45; 0:0</text>
</g>
<!-- n7&#45;&gt;x6 -->
<g id="edge30" class="edge">
<title>n7:e&#45;&gt;x6:w</title>
<path fill="none" stroke="black" d="M99.9,-255.5C115.83,-255.5 116.53,-238.35 126.28,-231.39"/>
<polygon fill="black" stroke="black" points="127.33,-234.73 135.9,-228.5 125.31,-228.02 127.33,-234.73"/>
</g>
<!-- x7 -->
<g id="node19" class="node">
<title>x7</title>
<path fill="none" stroke="black" d="M272.9,-23.5C272.9,-23.5 323.9,-23.5 323.9,-23.5 329.9,-23.5 335.9,-29.5 335.9,-35.5 335.9,-35.5 335.9,-47.5 335.9,-47.5 335.9,-53.5 329.9,-59.5 323.9,-59.5 323.9,-59.5 272.9,-59.5 272.9,-59.5 266.9,-59.5 260.9,-53.5 260.9,-47.5 260.9,-47.5 260.9,-35.5 260.9,-35.5 260.9,-29.5 266.9,-23.5 272.9,-23.5"/>
<text text-anchor="middle" x="298.4" y="-37.8" font-family="Times,serif" font-size="14.00">3:3 &#45; 0:0</text>
</g>
<!-- n7&#45;&gt;x7 -->
<g id="edge31" class="edge">
<title>n7:e&#45;&gt;x7:w</title>
<path fill="none" stroke="black" d="M99.9,-255.5C184.53,-255.5 76.8,-129.09 135.9,-68.5 172.67,-30.79 199.66,-40.06 249.18,-41.36"/>
<polygon fill="black" stroke="black" points="249.35,-44.86 259.4,-41.5 249.44,-37.86 249.35,-44.86"/>
</g>
<!-- x8 -->
<g id="node21" class="node">
<title>x8</title>
<path fill="none" stroke="black" d="M411.9,-125.5C411.9,-125.5 462.9,-125.5 462.9,-125.5 468.9,-125.5 474.9,-131.5 474.9,-137.5 474.9,-137.5 474.9,-149.5 474.9,-149.5 474.9,-155.5 468.9,-161.5 462.9,-161.5 462.9,-161.5 411.9,-161.5 411.9,-161.5 405.9,-161.5 399.9,-155.5 399.9,-149.5 399.9,-149.5 399.9,-137.5 399.9,-137.5 399.9,-131.5 405.9,-125.5 411.9,-125.5"/>
<text text-anchor="middle" x="437.4" y="-139.8" font-family="Times,serif" font-size="14.00">1:1 &#45; 0:0</text>
</g>
<!-- n7&#45;&gt;x8 -->
<g id="edge32" class="edge">
<title>n7:e&#45;&gt;x8:w</title>
<path fill="none" stroke="black" d="M99.9,-255.5C140.11,-255.5 103.54,-196.38 135.9,-172.5 227.57,-104.84 278.01,-141.21 388.25,-143.4"/>
<polygon fill="black" stroke="black" points="388.36,-146.9 398.4,-143.5 388.43,-139.9 388.36,-146.9"/>
</g>
<!-- x9 -->
<g id="node23" class="node">
<title>x9</title>
<path fill="none" stroke="black" d="M411.9,-180.5C411.9,-180.5 462.9,-180.5 462.9,-180.5 468.9,-180.5 474.9,-186.5 474.9,-192.5 474.9,-192.5 474.9,-204.5 474.9,-204.5 474.9,-210.5 468.9,-216.5 462.9,-216.5 462.9,-216.5 411.9,-216.5 411.9,-216.5 405.9,-216.5 399.9,-210.5 399.9,-204.5 399.9,-204.5 399.9,-192.5 399.9,-192.5 399.9,-186.5 405.9,-180.5 411.9,-180.5"/>
<text text-anchor="middle" x="437.4" y="-194.8" font-family="Times,serif" font-size="14.00">0:0 &#45; 0:0</text>
</g>
<!-- n7&#45;&gt;x9 -->
<g id="edge33" class="edge">
<title>n7:e&#45;&gt;x9:w</title>
<path fill="none" stroke="black" d="M99.9,-255.5C128.74,-255.5 110.54,-215.26 135.9,-201.5 235.44,-147.49 279.14,-195.51 388.33,-198.37"/>
<polygon fill="black" stroke="black" points="388.35,-201.87 398.4,-198.5 388.44,-194.87 388.35,-201.87"/>
</g>
<!-- n8 -->
<g id="node2" class="node">
<title>n8</title>
<polygon fill="none" stroke="black" points="1047.67,-218.04 1047.67,-232.96 1028.03,-243.5 1000.24,-243.5 980.6,-232.96 980.6,-218.04 1000.24,-207.5 1028.03,-207.5 1047.67,-218.04"/>
<text text-anchor="middle" x="1014.14" y="-221.8" font-family="Times,serif" font-size="14.00">user</text>
</g>
<!-- x12 -->
<g id="node27" class="node">
<title>x12</title>
<path fill="none" stroke="black" d="M1180.37,-243.5C1180.37,-243.5 1150.37,-243.5 1150.37,-243.5 1144.37,-243.5 1138.37,-237.5 1138.37,-231.5 1138.37,-231.5 1138.37,-219.5 1138.37,-219.5 1138.37,-213.5 1144.37,-207.5 1150.37,-207.5 1150.37,-207.5 1180.37,-207.5 1180.37,-207.5 1186.37,-207.5 1192.37,-213.5 1192.37,-219.5 1192.37,-219.5 1192.37,-231.5 1192.37,-231.5 1192.37,-237.5 1186.37,-243.5 1180.37,-243.5"/>
<text text-anchor="middle" x="1165.37" y="-221.8" font-family="Times,serif" font-size="14.00">BUF</text>
</g>
<!-- n8&#45;&gt;x12 -->
<g id="edge36" class="edge">
<title>n8:e&#45;&gt;x12:w</title>
<path fill="none" stroke="black" stroke-width="3" d="M1049.14,-225.5C1085.23,-225.5 1096.69,-225.5 1128.36,-225.5"/>
<polygon fill="black" stroke="black" stroke-width="3" points="1128.37,-229 1138.37,-225.5 1128.37,-222 1128.37,-229"/>
</g>
<!-- n9 -->
<g id="node3" class="node">
<title>n9</title>
<polygon fill="none" stroke="black" points="1313.86,-243.5 1228.39,-225.5 1313.86,-207.5 1399.32,-225.5 1313.86,-243.5"/>
<text text-anchor="middle" x="1313.86" y="-221.8" font-family="Times,serif" font-size="14.00">user_comb</text>
</g>
<!-- n10 -->
<g id="node4" class="node">
<title>n10</title>
<polygon fill="none" stroke="black" points="763.15,-373.04 763.15,-387.96 742.21,-398.5 712.59,-398.5 691.64,-387.96 691.64,-373.04 712.59,-362.5 742.21,-362.5 763.15,-373.04"/>
<text text-anchor="middle" x="727.4" y="-376.8" font-family="Times,serif" font-size="14.00">valid</text>
</g>
<!-- x13 -->
<g id="node28" class="node">
<title>x13</title>
<path fill="none" stroke="black" d="M867.4,-398.5C867.4,-398.5 837.4,-398.5 837.4,-398.5 831.4,-398.5 825.4,-392.5 825.4,-386.5 825.4,-386.5 825.4,-374.5 825.4,-374.5 825.4,-368.5 831.4,-362.5 837.4,-362.5 837.4,-362.5 867.4,-362.5 867.4,-362.5 873.4,-362.5 879.4,-368.5 879.4,-374.5 879.4,-374.5 879.4,-386.5 879.4,-386.5 879.4,-392.5 873.4,-398.5 867.4,-398.5"/>
<text text-anchor="middle" x="852.4" y="-376.8" font-family="Times,serif" font-size="14.00">BUF</text>
</g>
<!-- n10&#45;&gt;x13 -->
<g id="edge15" class="edge">
<title>n10:e&#45;&gt;x13:w</title>
<path fill="none" stroke="black" d="M764.4,-380.5C787.31,-380.5 795.46,-380.5 814.22,-380.5"/>
<polygon fill="black" stroke="black" points="814.4,-384 824.4,-380.5 814.4,-377 814.4,-384"/>
</g>
<!-- n11 -->
<g id="node5" class="node">
<title>n11</title>
<polygon fill="none" stroke="black" points="1014.14,-398.5 925.66,-380.5 1014.14,-362.5 1102.61,-380.5 1014.14,-398.5"/>
<text text-anchor="middle" x="1014.14" y="-376.8" font-family="Times,serif" font-size="14.00">valid_comb</text>
</g>
<!-- c14 -->
<g id="node6" class="node">
<title>c14</title>
<polygon fill="none" stroke="black" points="247.9,-78.5 247.9,-114.5 348.9,-114.5 348.9,-78.5 247.9,-78.5"/>
<text text-anchor="middle" x="260.9" y="-92.8" font-family="Times,serif" font-size="14.00">A</text>
<polyline fill="none" stroke="black" points="273.9,-78.5 273.9,-114.5 "/>
<text text-anchor="middle" x="298.4" y="-92.8" font-family="Times,serif" font-size="14.00">NOT</text>
<polyline fill="none" stroke="black" points="322.9,-78.5 322.9,-114.5 "/>
<text text-anchor="middle" x="335.9" y="-92.8" font-family="Times,serif" font-size="14.00">Y</text>
</g>
<!-- c20 -->
<g id="node18" class="node">
<title>c20</title>
<polygon fill="none" stroke="black" points="385.9,-60.5 385.9,-106.5 488.9,-106.5 488.9,-60.5 385.9,-60.5"/>
<text text-anchor="middle" x="399.4" y="-91.3" font-family="Times,serif" font-size="14.00">A</text>
<polyline fill="none" stroke="black" points="385.9,-83.5 412.9,-83.5 "/>
<text text-anchor="middle" x="399.4" y="-68.3" font-family="Times,serif" font-size="14.00">B</text>
<polyline fill="none" stroke="black" points="412.9,-60.5 412.9,-106.5 "/>
<text text-anchor="middle" x="437.9" y="-79.8" font-family="Times,serif" font-size="14.00">AND</text>
<polyline fill="none" stroke="black" points="462.9,-60.5 462.9,-106.5 "/>
<text text-anchor="middle" x="475.9" y="-79.8" font-family="Times,serif" font-size="14.00">Y</text>
</g>
<!-- c14&#45;&gt;c20 -->
<g id="edge20" class="edge">
<title>c14:e&#45;&gt;c20:w</title>
<path fill="none" stroke="black" d="M349.9,-96.5C361.9,-96.5 367.14,-95.94 375.77,-95.66"/>
<polygon fill="black" stroke="black" points="375.95,-99.15 385.9,-95.5 375.84,-92.15 375.95,-99.15"/>
</g>
<!-- x0&#45;&gt;c14 -->
<g id="edge1" class="edge">
<title>x0:e&#45;&gt;c14:w</title>
<path fill="none" stroke="black" d="M223.11,-96.5C227.19,-96.5 230.63,-96.5 234.71,-96.5"/>
<polygon fill="none" stroke="black" points="222.9,-96.5 216.9,-100.5 210.9,-96.5 216.9,-92.5 222.9,-96.5"/>
<polygon fill="none" stroke="black" points="234.9,-96.5 240.9,-92.5 246.9,-96.5 240.9,-100.5 234.9,-96.5"/>
</g>
<!-- c16 -->
<g id="node8" class="node">
<title>c16</title>
<polygon fill="none" stroke="black" points="246.9,-437.5 246.9,-483.5 349.9,-483.5 349.9,-437.5 246.9,-437.5"/>
<text text-anchor="middle" x="260.4" y="-468.3" font-family="Times,serif" font-size="14.00">A</text>
<polyline fill="none" stroke="black" points="246.9,-460.5 273.9,-460.5 "/>
<text text-anchor="middle" x="260.4" y="-445.3" font-family="Times,serif" font-size="14.00">B</text>
<polyline fill="none" stroke="black" points="273.9,-437.5 273.9,-483.5 "/>
<text text-anchor="middle" x="298.9" y="-456.8" font-family="Times,serif" font-size="14.00">NOR</text>
<polyline fill="none" stroke="black" points="323.9,-437.5 323.9,-483.5 "/>
<text text-anchor="middle" x="336.9" y="-456.8" font-family="Times,serif" font-size="14.00">Y</text>
</g>
<!-- n6 -->
<g id="node29" class="node">
<title>n6</title>
<ellipse fill="black" stroke="black" cx="437.4" cy="-395.5" rx="1.8" ry="1.8"/>
</g>
<!-- c16&#45;&gt;n6 -->
<g id="edge21" class="edge">
<title>c16:e&#45;&gt;n6:w</title>
<path fill="none" stroke="black" d="M349.9,-460.5C393.58,-460.5 388.27,-405.26 424.29,-396.63"/>
<polygon fill="black" stroke="black" points="424.85,-400.09 434.4,-395.5 424.07,-393.13 424.85,-400.09"/>
</g>
<!-- x1&#45;&gt;c16 -->
<g id="edge2" class="edge">
<title>x1:e&#45;&gt;c16:w</title>
<path fill="none" stroke="black" d="M222.2,-498.93C227.84,-493.13 229.83,-483.19 235.38,-477.3"/>
<polygon fill="none" stroke="black" points="222.02,-499 217.96,-504.96 210.9,-503.5 214.96,-497.54 222.02,-499"/>
<polygon fill="none" stroke="black" points="235.82,-477.11 239.82,-471.11 246.9,-472.5 242.89,-478.5 235.82,-477.11"/>
</g>
<!-- x2&#45;&gt;c16 -->
<g id="edge3" class="edge">
<title>x2:e&#45;&gt;c16:w</title>
<path fill="none" stroke="black" d="M223.11,-448.5C227.19,-448.5 230.63,-448.5 234.71,-448.5"/>
<polygon fill="none" stroke="black" points="222.9,-448.5 216.9,-452.5 210.9,-448.5 216.9,-444.5 222.9,-448.5"/>
<polygon fill="none" stroke="black" points="234.9,-448.5 240.9,-444.5 246.9,-448.5 240.9,-452.5 234.9,-448.5"/>
</g>
<!-- c17 -->
<g id="node11" class="node">
<title>c17</title>
<polygon fill="none" stroke="black" points="246.9,-342.5 246.9,-388.5 349.9,-388.5 349.9,-342.5 246.9,-342.5"/>
<text text-anchor="middle" x="260.4" y="-373.3" font-family="Times,serif" font-size="14.00">A</text>
<polyline fill="none" stroke="black" points="246.9,-365.5 273.9,-365.5 "/>
<text text-anchor="middle" x="260.4" y="-350.3" font-family="Times,serif" font-size="14.00">B</text>
<polyline fill="none" stroke="black" points="273.9,-342.5 273.9,-388.5 "/>
<text text-anchor="middle" x="298.9" y="-361.8" font-family="Times,serif" font-size="14.00">NOR</text>
<polyline fill="none" stroke="black" points="323.9,-342.5 323.9,-388.5 "/>
<text text-anchor="middle" x="336.9" y="-361.8" font-family="Times,serif" font-size="14.00">Y</text>
</g>
<!-- c19 -->
<g id="node17" class="node">
<title>c19</title>
<polygon fill="none" stroke="black" points="524.9,-357.5 524.9,-403.5 639.9,-403.5 639.9,-357.5 524.9,-357.5"/>
<text text-anchor="middle" x="538.4" y="-388.3" font-family="Times,serif" font-size="14.00">A</text>
<polyline fill="none" stroke="black" points="524.9,-380.5 551.9,-380.5 "/>
<text text-anchor="middle" x="538.4" y="-365.3" font-family="Times,serif" font-size="14.00">B</text>
<polyline fill="none" stroke="black" points="551.9,-357.5 551.9,-403.5 "/>
<text text-anchor="middle" x="582.9" y="-376.8" font-family="Times,serif" font-size="14.00">NAND</text>
<polyline fill="none" stroke="black" points="613.9,-357.5 613.9,-403.5 "/>
<text text-anchor="middle" x="626.9" y="-376.8" font-family="Times,serif" font-size="14.00">Y</text>
</g>
<!-- c17&#45;&gt;c19 -->
<g id="edge13" class="edge">
<title>c17:e&#45;&gt;c19:w</title>
<path fill="none" stroke="black" d="M349.9,-365.5C424.19,-365.5 445.24,-368.24 514.76,-368.48"/>
<polygon fill="black" stroke="black" points="514.89,-371.98 524.9,-368.5 514.9,-364.98 514.89,-371.98"/>
</g>
<!-- x3&#45;&gt;c17 -->
<g id="edge4" class="edge">
<title>x3:e&#45;&gt;c17:w</title>
<path fill="none" stroke="black" d="M222.74,-390.26C227.26,-387.49 230.54,-383.51 235.06,-380.73"/>
<polygon fill="none" stroke="black" points="222.47,-390.33 217.74,-395.78 210.9,-393.5 215.63,-388.06 222.47,-390.33"/>
<polygon fill="none" stroke="black" points="235.32,-380.66 240.05,-375.22 246.9,-377.5 242.16,-382.94 235.32,-380.66"/>
</g>
<!-- x4&#45;&gt;c17 -->
<g id="edge5" class="edge">
<title>x4:e&#45;&gt;c17:w</title>
<path fill="none" stroke="black" d="M222.69,-341.54C227.23,-344.14 230.57,-347.87 235.11,-350.47"/>
<polygon fill="none" stroke="black" points="222.52,-341.49 215.71,-343.87 210.9,-338.5 217.7,-336.12 222.52,-341.49"/>
<polygon fill="none" stroke="black" points="235.27,-350.51 242.08,-348.13 246.9,-353.5 240.09,-355.88 235.27,-350.51"/>
</g>
<!-- c18 -->
<g id="node14" class="node">
<title>c18</title>
<polygon fill="none" stroke="black" points="252.9,-235.5 252.9,-281.5 343.9,-281.5 343.9,-235.5 252.9,-235.5"/>
<text text-anchor="middle" x="266.4" y="-266.3" font-family="Times,serif" font-size="14.00">A</text>
<polyline fill="none" stroke="black" points="252.9,-258.5 279.9,-258.5 "/>
<text text-anchor="middle" x="266.4" y="-243.3" font-family="Times,serif" font-size="14.00">B</text>
<polyline fill="none" stroke="black" points="279.9,-235.5 279.9,-281.5 "/>
<text text-anchor="middle" x="298.9" y="-254.8" font-family="Times,serif" font-size="14.00">OR</text>
<polyline fill="none" stroke="black" points="317.9,-235.5 317.9,-281.5 "/>
<text text-anchor="middle" x="330.9" y="-254.8" font-family="Times,serif" font-size="14.00">Y</text>
</g>
<!-- c23 -->
<g id="node25" class="node">
<title>c23</title>
<polygon fill="none" stroke="black" points="530.9,-247.5 530.9,-293.5 633.9,-293.5 633.9,-247.5 530.9,-247.5"/>
<text text-anchor="middle" x="544.4" y="-278.3" font-family="Times,serif" font-size="14.00">A</text>
<polyline fill="none" stroke="black" points="530.9,-270.5 557.9,-270.5 "/>
<text text-anchor="middle" x="544.4" y="-255.3" font-family="Times,serif" font-size="14.00">B</text>
<polyline fill="none" stroke="black" points="557.9,-247.5 557.9,-293.5 "/>
<text text-anchor="middle" x="582.9" y="-266.8" font-family="Times,serif" font-size="14.00">AND</text>
<polyline fill="none" stroke="black" points="607.9,-247.5 607.9,-293.5 "/>
<text text-anchor="middle" x="620.9" y="-266.8" font-family="Times,serif" font-size="14.00">Y</text>
</g>
<!-- c18&#45;&gt;c23 -->
<g id="edge17" class="edge">
<title>c18:e&#45;&gt;c23:w</title>
<path fill="none" stroke="black" d="M345.4,-258.5C423.66,-258.5 445.75,-258.5 519.18,-258.5"/>
<polygon fill="black" stroke="black" points="519.4,-262 529.4,-258.5 519.4,-255 519.4,-262"/>
</g>
<!-- x5&#45;&gt;c18 -->
<g id="edge6" class="edge">
<title>x5:e&#45;&gt;c18:w</title>
<path fill="none" stroke="black" d="M222.84,-281.35C229.03,-278.93 233.35,-275.01 239.55,-272.61"/>
<polygon fill="none" stroke="black" points="222.71,-281.38 217.51,-286.38 210.9,-283.5 216.09,-278.5 222.71,-281.38"/>
<polygon fill="none" stroke="black" points="239.58,-272.6 244.79,-267.61 251.4,-270.5 246.19,-275.49 239.58,-272.6"/>
</g>
<!-- x6&#45;&gt;c18 -->
<g id="edge7" class="edge">
<title>x6:e&#45;&gt;c18:w</title>
<path fill="none" stroke="black" d="M222.76,-231.31C229.18,-234.71 233.23,-240.4 239.68,-243.77"/>
<polygon fill="none" stroke="black" points="222.57,-231.27 215.81,-233.78 210.9,-228.5 217.66,-225.99 222.57,-231.27"/>
<polygon fill="none" stroke="black" points="239.71,-243.77 246.46,-241.24 251.4,-246.5 244.64,-249.03 239.71,-243.77"/>
</g>
<!-- c19&#45;&gt;n10 -->
<g id="edge14" class="edge">
<title>c19:e&#45;&gt;n10:w</title>
<path fill="none" stroke="black" d="M639.9,-380.5C658.48,-380.5 665.53,-380.5 680.14,-380.5"/>
<polygon fill="black" stroke="black" points="680.4,-384 690.4,-380.5 680.4,-377 680.4,-384"/>
</g>
<!-- c21 -->
<g id="node20" class="node">
<title>c21</title>
<polygon fill="none" stroke="black" points="530.9,-108.5 530.9,-154.5 633.9,-154.5 633.9,-108.5 530.9,-108.5"/>
<text text-anchor="middle" x="544.4" y="-139.3" font-family="Times,serif" font-size="14.00">A</text>
<polyline fill="none" stroke="black" points="530.9,-131.5 557.9,-131.5 "/>
<text text-anchor="middle" x="544.4" y="-116.3" font-family="Times,serif" font-size="14.00">B</text>
<polyline fill="none" stroke="black" points="557.9,-108.5 557.9,-154.5 "/>
<text text-anchor="middle" x="582.9" y="-127.8" font-family="Times,serif" font-size="14.00">NOR</text>
<polyline fill="none" stroke="black" points="607.9,-108.5 607.9,-154.5 "/>
<text text-anchor="middle" x="620.9" y="-127.8" font-family="Times,serif" font-size="14.00">Y</text>
</g>
<!-- c20&#45;&gt;c21 -->
<g id="edge18" class="edge">
<title>c20:e&#45;&gt;c21:w</title>
<path fill="none" stroke="black" d="M488.9,-83.5C508.84,-83.5 507.01,-108.19 519.47,-116.68"/>
<polygon fill="black" stroke="black" points="518.82,-120.13 529.4,-119.5 520.74,-113.4 518.82,-120.13"/>
</g>
<!-- x7&#45;&gt;c20 -->
<g id="edge8" class="edge">
<title>x7:e&#45;&gt;c20:w</title>
<path fill="none" stroke="black" d="M349.11,-44.27C359.66,-49.95 363.55,-62.9 374.03,-68.65"/>
<polygon fill="none" stroke="black" points="349.07,-44.26 342.32,-46.77 337.4,-41.5 344.16,-38.99 349.07,-44.26"/>
<polygon fill="none" stroke="black" points="374.23,-68.7 381,-66.21 385.9,-71.5 379.13,-73.99 374.23,-68.7"/>
</g>
<!-- c22 -->
<g id="node22" class="node">
<title>c22</title>
<polygon fill="none" stroke="black" points="675.9,-163.5 675.9,-209.5 778.9,-209.5 778.9,-163.5 675.9,-163.5"/>
<text text-anchor="middle" x="689.4" y="-194.3" font-family="Times,serif" font-size="14.00">A</text>
<polyline fill="none" stroke="black" points="675.9,-186.5 702.9,-186.5 "/>
<text text-anchor="middle" x="689.4" y="-171.3" font-family="Times,serif" font-size="14.00">B</text>
<polyline fill="none" stroke="black" points="702.9,-163.5 702.9,-209.5 "/>
<text text-anchor="middle" x="727.9" y="-182.8" font-family="Times,serif" font-size="14.00">NOR</text>
<polyline fill="none" stroke="black" points="752.9,-163.5 752.9,-209.5 "/>
<text text-anchor="middle" x="765.9" y="-182.8" font-family="Times,serif" font-size="14.00">Y</text>
</g>
<!-- c21&#45;&gt;c22 -->
<g id="edge19" class="edge">
<title>c21:e&#45;&gt;c22:w</title>
<path fill="none" stroke="black" d="M635.4,-131.5C657.55,-131.5 652.46,-162.11 666.1,-171.68"/>
<polygon fill="black" stroke="black" points="665.32,-175.1 675.9,-174.5 667.26,-168.37 665.32,-175.1"/>
</g>
<!-- x8&#45;&gt;c21 -->
<g id="edge9" class="edge">
<title>x8:e&#45;&gt;c21:w</title>
<path fill="none" stroke="black" d="M488.44,-143.5C499.42,-143.5 506.39,-143.5 517.38,-143.5"/>
<polygon fill="none" stroke="black" points="488.4,-143.5 482.4,-147.5 476.4,-143.5 482.4,-139.5 488.4,-143.5"/>
<polygon fill="none" stroke="black" points="517.4,-143.5 523.4,-139.5 529.4,-143.5 523.4,-147.5 517.4,-143.5"/>
</g>
<!-- x10 -->
<g id="node24" class="node">
<title>x10</title>
<path fill="none" stroke="black" d="M826.9,-172.5C826.9,-172.5 877.9,-172.5 877.9,-172.5 883.9,-172.5 889.9,-178.5 889.9,-184.5 889.9,-184.5 889.9,-196.5 889.9,-196.5 889.9,-202.5 883.9,-208.5 877.9,-208.5 877.9,-208.5 826.9,-208.5 826.9,-208.5 820.9,-208.5 814.9,-202.5 814.9,-196.5 814.9,-196.5 814.9,-184.5 814.9,-184.5 814.9,-178.5 820.9,-172.5 826.9,-172.5"/>
<text text-anchor="middle" x="852.4" y="-186.8" font-family="Times,serif" font-size="14.00">0:0 &#45; 0:0</text>
</g>
<!-- c22&#45;&gt;x10 -->
<g id="edge11" class="edge">
<title>c22:e&#45;&gt;x10:w</title>
<path fill="none" stroke="black" d="M790.88,-187.39C795.14,-188.05 798.67,-188.95 802.93,-189.61"/>
<polygon fill="none" stroke="black" points="790.86,-187.39 784.58,-190.93 778.9,-186.5 785.18,-182.95 790.86,-187.39"/>
<polygon fill="none" stroke="black" points="802.93,-189.61 809.21,-186.07 814.9,-190.5 808.62,-194.05 802.93,-189.61"/>
</g>
<!-- x9&#45;&gt;c22 -->
<g id="edge10" class="edge">
<title>x9:e&#45;&gt;c22:w</title>
<path fill="none" stroke="black" d="M488.44,-198.5C563.28,-198.5 588.8,-198.5 663.47,-198.5"/>
<polygon fill="none" stroke="black" points="488.4,-198.5 482.4,-202.5 476.4,-198.5 482.4,-194.5 488.4,-198.5"/>
<polygon fill="none" stroke="black" points="663.9,-198.5 669.9,-194.5 675.9,-198.5 669.9,-202.5 663.9,-198.5"/>
</g>
<!-- x10&#45;&gt;n8 -->
<g id="edge34" class="edge">
<title>x10:e&#45;&gt;n8:w</title>
<path fill="none" stroke="black" d="M889.9,-190.5C928.84,-190.5 935.55,-219.74 968.96,-224.77"/>
<polygon fill="black" stroke="black" points="968.91,-228.27 979.14,-225.5 969.41,-221.29 968.91,-228.27"/>
</g>
<!-- x11 -->
<g id="node26" class="node">
<title>x11</title>
<path fill="none" stroke="black" d="M826.9,-234.5C826.9,-234.5 877.9,-234.5 877.9,-234.5 883.9,-234.5 889.9,-240.5 889.9,-246.5 889.9,-246.5 889.9,-258.5 889.9,-258.5 889.9,-264.5 883.9,-270.5 877.9,-270.5 877.9,-270.5 826.9,-270.5 826.9,-270.5 820.9,-270.5 814.9,-264.5 814.9,-258.5 814.9,-258.5 814.9,-246.5 814.9,-246.5 814.9,-240.5 820.9,-234.5 826.9,-234.5"/>
<text text-anchor="middle" x="852.4" y="-248.8" font-family="Times,serif" font-size="14.00">0:0 &#45; 1:1</text>
</g>
<!-- c23&#45;&gt;x11 -->
<g id="edge12" class="edge">
<title>c23:e&#45;&gt;x11:w</title>
<path fill="none" stroke="black" d="M647.59,-270.36C713.79,-268.75 736.39,-254.28 802.5,-252.65"/>
<polygon fill="none" stroke="black" points="647.4,-270.36 641.44,-274.43 635.4,-270.5 641.35,-266.43 647.4,-270.36"/>
<polygon fill="none" stroke="black" points="802.9,-252.65 808.85,-248.57 814.9,-252.5 808.94,-256.57 802.9,-252.65"/>
</g>
<!-- x11&#45;&gt;n8 -->
<g id="edge35" class="edge">
<title>x11:e&#45;&gt;n8:w</title>
<path fill="none" stroke="black" d="M889.9,-252.5C927.61,-252.5 936.27,-230.13 968.76,-226.11"/>
<polygon fill="black" stroke="black" points="969.36,-229.59 979.14,-225.5 968.95,-222.6 969.36,-229.59"/>
</g>
<!-- x12&#45;&gt;n9 -->
<g id="edge37" class="edge">
<title>x12:e&#45;&gt;n9:w</title>
<path fill="none" stroke="black" stroke-width="3" d="M1192.37,-225.5C1204.37,-225.5 1209.62,-225.5 1218.25,-225.5"/>
<polygon fill="black" stroke="black" stroke-width="3" points="1218.37,-229 1228.37,-225.5 1218.37,-222 1218.37,-229"/>
</g>
<!-- x13&#45;&gt;n11 -->
<g id="edge16" class="edge">
<title>x13:e&#45;&gt;n11:w</title>
<path fill="none" stroke="black" d="M880.4,-380.5C896.67,-380.5 903.12,-380.5 915.56,-380.5"/>
<polygon fill="black" stroke="black" points="915.9,-384 925.9,-380.5 915.9,-377 915.9,-384"/>
</g>
<!-- n6&#45;&gt;c19 -->
<g id="edge22" class="edge">
<title>n6:e&#45;&gt;c19:w</title>
<path fill="none" stroke="black" d="M440.4,-395.5C474.31,-395.5 485.22,-393.06 514.64,-392.58"/>
<polygon fill="black" stroke="black" points="514.92,-396.08 524.9,-392.5 514.87,-389.08 514.92,-396.08"/>
</g>
<!-- n6&#45;&gt;c23 -->
<g id="edge23" class="edge">
<title>n6:e&#45;&gt;c23:w</title>
<path fill="none" stroke="black" d="M440.4,-395.5C500.58,-395.5 469.67,-295.35 519.18,-283.62"/>
<polygon fill="black" stroke="black" points="519.84,-287.07 529.4,-282.5 519.07,-280.11 519.84,-287.07"/>
</g>
</g>
</svg>
