<svg width="1108" height="168" xmlns="http://www.w3.org/2000/svg" xmlns:xlink="http://www.w3.org/1999/xlink" overflow="hidden"><defs><clipPath id="clip0"><rect x="0" y="0" width="1108" height="168"/></clipPath></defs><g clip-path="url(#clip0)"><rect x="0" y="0" width="1108" height="167.758" fill="#FFFFFF"/><rect x="351.5" y="53.4229" width="119" height="57.9163" stroke="#2F528F" stroke-width="1.33394" stroke-miterlimit="8" fill="#4472C4"/><text fill="#FFFFFF" font-family="DengXian,DengXian_MSFontService,sans-serif" font-weight="400" font-size="24" transform="matrix(1 0 0 0.998558 363.127 89)">控制<tspan font-size="24" x="47.3547" y="0">逻辑</tspan></text><rect x="144.5" y="53.4229" width="119" height="57.9163" stroke="#2F528F" stroke-width="1.33394" stroke-miterlimit="8" fill="#4472C4"/><text fill="#FFFFFF" font-family="DengXian,DengXian_MSFontService,sans-serif" font-weight="400" font-size="24" transform="matrix(1 0 0 0.998558 155.831 90)">外设控制</text><path d="M0.499963 125.153C0.499963 120.833 4.00714 117.331 8.33347 117.331L72.6664 117.331C76.9928 117.331 80.5 120.833 80.5 125.153L80.5 156.441C80.5 160.761 76.9928 164.263 72.6664 164.263L8.33347 164.263C4.00714 164.263 0.499963 160.761 0.499963 156.441Z" stroke="#2F528F" stroke-width="1.33394" stroke-miterlimit="8" fill="#4472C4" fill-rule="evenodd"/><text fill="#FFFFFF" font-family="Calibri,Calibri_MSFontService,sans-serif" font-weight="400" font-size="24" transform="matrix(1 0 0 0.998558 17.8665 148)">PS/2</text><path d="M0.499963 66.4043C0.499963 61.9923 4.08176 58.4156 8.50014 58.4156L72.4998 58.4156C76.9182 58.4156 80.5 61.9923 80.5 66.4043L80.5 98.3578C80.5 102.77 76.9182 106.346 72.4998 106.346L8.50014 106.346C4.08176 106.346 0.499963 102.77 0.499963 98.3578Z" stroke="#2F528F" stroke-width="1.33394" stroke-miterlimit="8" fill="#4472C4" fill-rule="evenodd"/><text fill="#FFFFFF" font-family="Calibri,Calibri_MSFontService,sans-serif" font-weight="400" font-size="24" transform="matrix(1 0 0 0.998558 13.8247 90)">UART</text><path d="M0.499963 8.48789C0.499963 4.07588 4.08176 0.499242 8.50014 0.499242L72.4998 0.499242C76.9182 0.499242 80.5 4.07588 80.5 8.48789L80.5 40.4414C80.5 44.8534 76.9182 48.4301 72.4998 48.4301L8.50014 48.4301C4.08176 48.4301 0.499963 44.8534 0.499963 40.4414Z" stroke="#2F528F" stroke-width="1.33394" stroke-miterlimit="8" fill="#4472C4" fill-rule="evenodd"/><text fill="#FFFFFF" font-family="Calibri,Calibri_MSFontService,sans-serif" font-weight="400" font-size="24" transform="matrix(1 0 0 0.998558 26.7039 31)">I<tspan font-size="16" x="6.00271" y="-7.01011">2</tspan><tspan font-size="24" x="14.0063" y="0">C</tspan></text><path d="M87.1696 82.0481 137.321 82.0481 137.321 82.7142 87.1696 82.7141ZM88.5036 86.3771 80.4999 82.3811 88.5036 78.385ZM135.987 78.3851 143.991 82.3812 135.987 86.3772Z" fill="#4472C4"/><path d="M138.858 78.5804 85.1803 29.2212 85.6321 28.7312 139.31 78.0905ZM140.814 74.4936 143.991 82.8469 135.392 80.3726ZM83.6767 32.818 80.4999 24.4647 89.0983 26.939Z" fill="#4472C4"/><path d="M343.5 76.3898 349.5 82.3811 343.5 88.3724 343.5 85.3768 271.5 85.3768 271.5 88.3724 265.5 82.3811 271.5 76.3898 271.5 79.3854 343.5 79.3854Z" stroke="#2F528F" stroke-width="1.33201" stroke-miterlimit="8" fill="#4472C4" fill-rule="evenodd"/><path d="M5.12478 4.26655 58.7254 53.6256 58.2743 54.1155 4.67363 4.75647ZM3.17215 8.35338 0 0 8.58599 2.47431ZM60.2269 50.0287 63.399 58.3821 54.813 55.9078Z" fill="#4472C4" transform="matrix(1.00144 0 0 -1 80.4999 140.763)"/><text font-family="DengXian,DengXian_MSFontService,sans-serif" font-weight="400" font-size="18" transform="matrix(1 0 0 0.998558 269.619 67)">用户输入</text><rect x="558.5" y="53.4229" width="119" height="57.9163" stroke="#2F528F" stroke-width="1.33394" stroke-miterlimit="8" fill="#4472C4"/><text fill="#FFFFFF" font-family="DengXian,DengXian_MSFontService,sans-serif" font-weight="400" font-size="24" transform="matrix(1 0 0 0.998558 570.422 89)">图形渲染<tspan fill="#000000" font-size="18" x="-93.5069" y="-20.0289">当前状态</tspan></text><path d="M727.5 53.4229C727.5 42.3931 749.214 33.4517 776 33.4517 802.786 33.4517 824.5 42.3931 824.5 53.4229 824.5 64.4527 802.786 73.3941 776 73.3941 749.214 73.3941 727.5 64.4527 727.5 53.4229Z" stroke="#2F528F" stroke-width="1.33394" stroke-miterlimit="8" fill="#4472C4" fill-rule="evenodd"/><text fill="#FFFFFF" font-family="DengXian,DengXian_MSFontService,sans-serif" font-weight="400" font-size="19" transform="matrix(1 0 0 0.998558 751.739 59)">显存<tspan font-family="Calibri,Calibri_MSFontService,sans-serif" font-size="19" x="37.3502" y="0">1</tspan><tspan fill="#000000" font-size="18" x="-56.1574" y="32.0462">写</tspan></text><path d="M684.867 87.6843 718.927 102.556 720.172 99.7136 723.376 107.885 715.193 111.084 716.438 108.242 682.378 93.3697Z" stroke="#2F528F" stroke-width="1.33363" stroke-miterlimit="8" fill="#4472C4" fill-rule="evenodd"/><rect x="871.5" y="54.4214" width="119" height="56.9178" stroke="#2F528F" stroke-width="1.33394" stroke-miterlimit="8" fill="#4472C4"/><text fill="#FFFFFF" font-family="DengXian,DengXian_MSFontService,sans-serif" font-weight="400" font-size="24" transform="matrix(1 0 0 0.998558 883.434 90)">显示输出<tspan fill="#000000" font-size="18" x="-43.072" y="-35.0505">读</tspan></text><path d="M1025.5 67.4029C1025.5 62.9909 1029.08 59.4142 1033.5 59.4142L1097.5 59.4142C1101.92 59.4142 1105.5 62.9909 1105.5 67.4029L1105.5 99.3564C1105.5 103.768 1101.92 107.345 1097.5 107.345L1033.5 107.345C1029.08 107.345 1025.5 103.768 1025.5 99.3564Z" stroke="#2F528F" stroke-width="1.33394" stroke-miterlimit="8" fill="#4472C4" fill-rule="evenodd"/><text fill="#FFFFFF" font-family="Calibri,Calibri_MSFontService,sans-serif" font-weight="400" font-size="24" transform="matrix(1 0 0 0.998558 1044 91)">VGA</text><path d="M990.504 83.0467 1018.34 83.4125 1018.33 84.0785 990.496 83.7126ZM1017.06 79.7323 1025.01 83.8332 1016.95 87.7237Z" fill="#4472C4"/><text font-family="DengXian,DengXian_MSFontService,sans-serif" font-weight="400" font-size="18" transform="matrix(1 0 0 0.998558 269.619 110)">输出反馈</text><path d="M475.5 79.3854 548.5 79.3854 548.5 76.3897 554.5 82.3811 548.5 88.3724 548.5 85.3767 475.5 85.3767Z" stroke="#2F528F" stroke-width="1.33394" stroke-miterlimit="8" fill="#4472C4" fill-rule="evenodd"/><path d="M726.5 114.335C726.5 103.305 748.214 94.3637 775 94.3637 801.786 94.3637 823.5 103.305 823.5 114.335 823.5 125.365 801.786 134.306 775 134.306 748.214 134.306 726.5 125.365 726.5 114.335Z" stroke="#2F528F" stroke-width="1.33394" stroke-miterlimit="8" fill="#4472C4" fill-rule="evenodd"/><text fill="#FFFFFF" font-family="DengXian,DengXian_MSFontService,sans-serif" font-weight="400" font-size="19" transform="matrix(1 0 0 0.998558 750.856 119)">显存<tspan font-family="Calibri,Calibri_MSFontService,sans-serif" font-size="19" x="37.3502" y="0">2</tspan></text><path d="M828.309 55.7519 862.369 70.6239 863.614 67.7812 866.818 75.9526 858.635 79.1519 859.879 76.3093 825.819 61.4372Z" stroke="#2F528F" stroke-width="1.33363" stroke-miterlimit="8" fill="#4472C4" fill-rule="evenodd"/><path d="M743.5 81.9442C743.5 84.9324 747.51 87.5421 753.25 88.2892L753.25 86.6665 756.5 90.1199 753.25 93.1571 753.25 91.5345C747.51 90.7874 743.5 88.1777 743.5 85.1895Z" fill="#4472C4" fill-rule="evenodd"/><path d="M756.5 78.6364C750.56 78.6364 745.376 80.6659 743.905 83.5669 742.127 80.0604 746.325 76.4914 753.281 75.5952 754.333 75.4597 755.414 75.3911 756.5 75.3911Z" fill="#375C9E" fill-rule="evenodd"/><path d="M743.5 81.9442C743.5 84.9324 747.51 87.5421 753.25 88.2892L753.25 86.6665 756.5 90.1199 753.25 93.1571 753.25 91.5345C747.51 90.7874 743.5 88.1777 743.5 85.1895L743.5 81.9442C743.5 78.325 749.32 75.3911 756.5 75.3911L756.5 78.6364C750.56 78.6364 745.376 80.6659 743.905 83.5669" stroke="#2F528F" stroke-width="1.33394" stroke-miterlimit="8" fill="none" fill-rule="evenodd"/><path d="M805.5 86.8122C805.5 83.824 801.49 81.2142 795.75 80.4672L795.75 82.0899 792.5 78.6364 795.75 75.5992 795.75 77.2219C801.49 77.9689 805.5 80.5787 805.5 83.5669Z" fill="#4472C4" fill-rule="evenodd"/><path d="M792.5 90.1199C798.44 90.1199 803.624 88.0905 805.095 85.1895 806.873 88.696 802.675 92.265 795.719 93.1612 794.667 93.2967 793.586 93.3652 792.5 93.3652Z" fill="#375C9E" fill-rule="evenodd"/><path d="M805.5 86.8122C805.5 83.824 801.49 81.2142 795.75 80.4672L795.75 82.0899 792.5 78.6364 795.75 75.5992 795.75 77.2219C801.49 77.9689 805.5 80.5787 805.5 83.5669L805.5 86.8122C805.5 90.4313 799.68 93.3652 792.5 93.3652L792.5 90.1199C798.44 90.1199 803.624 88.0905 805.095 85.1895" stroke="#2F528F" stroke-width="1.33394" stroke-miterlimit="8" fill="none" fill-rule="evenodd"/><rect x="725.5" y="27.4603" width="100" height="113.836" stroke="#2F528F" stroke-width="1.33394" stroke-miterlimit="8" stroke-dasharray="5.33574 4.00181" fill="none"/></g></svg>