<svg width="1108" height="168" xmlns="http://www.w3.org/2000/svg" xmlns:xlink="http://www.w3.org/1999/xlink" overflow="hidden"><defs><clipPath id="clip0"><rect x="0" y="0" width="1108" height="168"/></clipPath></defs><g clip-path="url(#clip0)"><rect x="0" y="0" width="1108" height="167.758" fill="#FFFFFF"/><rect x="177.5" y="62.4099" width="119" height="57.9164" stroke="#2F528F" stroke-width="1.33394" stroke-miterlimit="8" fill="#4472C4"/><text fill="#FFFFFF" font-family="DengXian,DengXian_MSFontService,sans-serif" font-weight="400" font-size="24" transform="matrix(1 0 0 0.998558 189.286 98)">输入解析</text><rect x="332.5" y="97.3594" width="119" height="56.9178" stroke="#2F528F" stroke-width="1.33394" stroke-miterlimit="8" fill="#4472C4"/><text fill="#FFFFFF" font-family="DengXian,DengXian_MSFontService,sans-serif" font-weight="400" font-size="24" transform="matrix(1 0 0 0.998558 350.346 133)">流水级<tspan font-family="Calibri,Calibri_MSFontService,sans-serif" font-size="24" x="71.0321" y="0">1</tspan></text><rect x="482.5" y="97.3594" width="119" height="56.9178" stroke="#2F528F" stroke-width="1.33394" stroke-miterlimit="8" fill="#4472C4"/><text fill="#FFFFFF" font-family="DengXian,DengXian_MSFontService,sans-serif" font-weight="400" font-size="24" transform="matrix(1 0 0 0.998558 500.327 133)">流水级<tspan font-family="Calibri,Calibri_MSFontService,sans-serif" font-size="24" x="71.032" y="0">2</tspan></text><rect x="654.5" y="97.3594" width="119" height="56.9178" stroke="#2F528F" stroke-width="1.33394" stroke-miterlimit="8" fill="#4472C4"/><text fill="#FFFFFF" font-family="DengXian,DengXian_MSFontService,sans-serif" font-weight="400" font-size="24" transform="matrix(1 0 0 0.998558 671.835 133)">流水级<tspan font-family="Calibri,Calibri_MSFontService,sans-serif" font-size="24" x="71.0321" y="0">n</tspan></text><path d="M74.5 75.3913C74.5 70.9793 78.0818 67.4026 82.5001 67.4026L146.5 67.4026C150.918 67.4026 154.5 70.9793 154.5 75.3913L154.5 107.345C154.5 111.757 150.918 115.333 146.5 115.333L82.5001 115.333C78.0818 115.333 74.5 111.757 74.5 107.345Z" stroke="#2F528F" stroke-width="1.33394" stroke-miterlimit="8" fill="#4472C4" fill-rule="evenodd"/><text fill="#FFFFFF" font-family="DengXian,DengXian_MSFontService,sans-serif" font-weight="400" font-size="19" transform="matrix(1 0 0 0.998558 85.7501 96)">流输入</text><rect x="809.5" y="62.4099" width="120" height="57.9164" stroke="#2F528F" stroke-width="1.33394" stroke-miterlimit="8" fill="#4472C4"/><text fill="#FFFFFF" font-family="DengXian,DengXian_MSFontService,sans-serif" font-weight="400" font-size="24" transform="matrix(1 0 0 0.998558 821.726 98)">输出生成</text><path d="M954.5 75.3913C954.5 70.9793 958.082 67.4026 962.5 67.4026L1026.5 67.4026C1030.92 67.4026 1034.5 70.9793 1034.5 75.3913L1034.5 107.345C1034.5 111.757 1030.92 115.333 1026.5 115.333L962.5 115.333C958.082 115.333 954.5 111.757 954.5 107.345Z" stroke="#2F528F" stroke-width="1.33394" stroke-miterlimit="8" fill="#4472C4" fill-rule="evenodd"/><text fill="#FFFFFF" font-family="DengXian,DengXian_MSFontService,sans-serif" font-weight="400" font-size="19" transform="matrix(1 0 0 0.998558 966.225 96)">流输出</text><rect x="500.5" y="14.4791" width="119" height="56.9178" stroke="#2F528F" stroke-width="1.33394" stroke-miterlimit="8" fill="#4472C4"/><text fill="#FFFFFF" font-family="DengXian,DengXian_MSFontService,sans-serif" font-weight="400" font-size="24" transform="matrix(1 0 0 0.998558 512.183 50)">控制逻辑</text><path d="M154.5 91.035 171.057 91.0351 171.057 91.7011 154.5 91.701ZM169.723 87.3721 177.726 91.3681 169.723 95.3641Z" fill="#4472C4"/><path d="M305.754 92.2621 323.742 117.254 325.95 115.67 324.707 123.25 317.116 122.009 319.325 120.424 301.337 95.4318Z" stroke="#2F528F" stroke-width="1.33267" stroke-miterlimit="8" fill="#4472C4" fill-rule="evenodd"/><path d="M456.5 124.57 474 124.57 474 122.323 478.5 126.817 474 131.31 474 129.064 456.5 129.064Z" stroke="#2F528F" stroke-width="1.33394" stroke-miterlimit="8" fill="#4472C4" fill-rule="evenodd"/><path d="M778.525 121.814 796.998 97.2932 794.954 95.7579 802.117 94.7469 803.129 101.899 801.086 100.364 782.612 124.884Z" stroke="#2F528F" stroke-width="1.33271" stroke-miterlimit="8" fill="#4472C4" fill-rule="evenodd"/><path d="M2.74275e-06-0.333003 18.808-0.332848 18.808 0.333158-2.74275e-06 0.333003ZM17.476-3.99589 25.4681 0.000209766 17.476 3.99618Z" fill="#4472C4" transform="matrix(1.00144 0 0 -1 929.5 91.3683)"/><text font-family="Calibri,Calibri_MSFontService,sans-serif" font-weight="400" font-size="24" transform="matrix(1 0 0 0.998558 610.962 127)">……</text><path d="M613.219 72.9157 663.659 86.3599 664.392 83.6204 668.414 90.5619 661.463 94.5785 662.195 91.839 611.755 78.3948Z" stroke="#2F528F" stroke-width="1.33381" stroke-miterlimit="8" fill="#4472C4" fill-rule="evenodd"/><path d="M0 2.63371 55.0599 2.63371 55.0599 0 60.3272 5.26736 55.0599 10.5347 55.0599 7.90107 0 7.90107Z" stroke="#2F528F" stroke-width="1.3321" stroke-miterlimit="8" fill="#4472C4" fill-rule="evenodd" transform="matrix(-0.977778 0.215805 0.216117 0.976368 508.183 71.9368)"/><path d="M545.156 83.8235 547.079 85.7177 554.696 78.0062 558.543 81.7947 550.925 89.5062 552.849 91.4005 545.208 91.4529Z" stroke="#2F528F" stroke-width="1.33299" stroke-miterlimit="8" fill="#4472C4" fill-rule="evenodd"/><rect x="334.5" y="14.4791" width="119" height="56.9178" stroke="#2F528F" stroke-width="1.33394" stroke-miterlimit="8" fill="#4472C4"/><text fill="#FFFFFF" font-family="DengXian,DengXian_MSFontService,sans-serif" font-weight="400" font-size="24" transform="matrix(1 0 0 0.998558 346.113 50)">外设控制</text><path d="M457.5 42.938 463 37.4459 463 40.1919 491 40.1919 491 37.4459 496.5 42.938 491 48.4301 491 45.684 463 45.684 463 48.4301Z" stroke="#2F528F" stroke-width="1.33394" stroke-miterlimit="8" fill="#4472C4" fill-rule="evenodd"/></g></svg>